<svg viewBox="0 0 25 25" fill="none" xmlns="http://www.w3.org/2000/svg">
<path fill-rule="evenodd" clip-rule="evenodd" d="M0 5C0 2.23857 2.23857 0 5 0H20C22.7614 0 25 2.23857 25 5V20C25 22.7614 22.7614 25 20 25H5C2.23857 25 0 22.7614 0 20V5ZM5 2.5C3.61929 2.5 2.5 3.61929 2.5 5V20C2.5 21.3808 3.61929 22.5 5 22.5H12.5V13.75H11.25C10.5596 13.75 10 13.1904 10 12.5C10 11.8096 10.5596 11.25 11.25 11.25H12.5V9.375C12.5 6.95875 14.4587 5 16.875 5H17.625C18.3154 5 18.875 5.55965 18.875 6.25C18.875 6.94035 18.3154 7.5 17.625 7.5H16.875C15.8395 7.5 15 8.33946 15 9.375V11.25H17.625C18.3154 11.25 18.875 11.8096 18.875 12.5C18.875 13.1904 18.3154 13.75 17.625 13.75H15V22.5H20C21.3808 22.5 22.5 21.3808 22.5 20V5C22.5 3.61929 21.3808 2.5 20 2.5H5Z" fill="#546E7A"/>
</svg>
