<svg viewBox="0 0 25 26" fill="none" xmlns="http://www.w3.org/2000/svg">
<path d="M5.69778 7.96146C5.82763 6.93449 7.16229 5.53874 8.2215 5.69362L8.21981 5.69192C9.25063 5.88781 10.0666 7.662 10.5268 8.45977C10.8528 9.0386 10.6411 9.62506 10.337 9.87252C9.92675 10.2032 9.28526 10.6594 9.41986 11.1174C9.65914 11.9318 12.5 14.7727 13.8973 15.5803C14.4262 15.886 14.8097 15.0797 15.1372 14.6666C15.3752 14.3489 15.9621 14.159 16.5396 14.4727C17.4021 14.9749 18.2146 15.5587 18.966 16.2159C19.3412 16.5295 19.4293 16.993 19.1693 17.4829C18.7113 18.3457 17.3868 19.4836 16.4253 19.2523C14.746 18.8486 7.95459 16.2159 5.77315 8.58859C5.65047 8.22776 5.68136 8.09135 5.69778 7.96146Z" fill="black"/>
<path fill-rule="evenodd" clip-rule="evenodd" d="M12.5 25C11.1095 25 10.3402 24.8508 9.09091 24.4318L6.69822 25.6282C5.18707 26.3837 3.40909 25.2849 3.40909 23.5953V21.0227C0.961989 18.7409 0 16.1099 0 12.5C0 5.59644 5.59644 0 12.5 0C19.4035 0 25 5.59644 25 12.5C25 19.4035 19.4035 25 12.5 25ZM5.68182 20.0344L4.95903 19.3605C3.05781 17.5877 2.27273 15.6058 2.27273 12.5C2.27273 6.85164 6.85164 2.27273 12.5 2.27273C18.1484 2.27273 22.7273 6.85164 22.7273 12.5C22.7273 18.1484 18.1484 22.7273 12.5 22.7273C11.3799 22.7273 10.8545 22.6261 9.81358 22.277L8.91872 21.9769L5.68182 23.5953V20.0344Z" fill="black"/>
</svg>
